<?xml version="1.0" encoding="UTF-8" standalone="no"?>
<!-- Created with Inkscape (http://www.inkscape.org/) -->
<svg
   xmlns:dc="http://purl.org/dc/elements/1.1/"
   xmlns:cc="http://creativecommons.org/ns#"
   xmlns:rdf="http://www.w3.org/1999/02/22-rdf-syntax-ns#"
   xmlns:svg="http://www.w3.org/2000/svg"
   xmlns="http://www.w3.org/2000/svg"
   xmlns:xlink="http://www.w3.org/1999/xlink"
   xmlns:sodipodi="http://sodipodi.sourceforge.net/DTD/sodipodi-0.dtd"
   xmlns:inkscape="http://www.inkscape.org/namespaces/inkscape"
   width="128"
   height="128"
   id="svg2383"
   sodipodi:version="0.32"
   inkscape:version="0.46"
   sodipodi:docname="gnome-logout.svg"
   inkscape:output_extension="org.inkscape.output.svg.inkscape"
   version="1.0">
  <defs
     id="defs2385">
    <linearGradient
       inkscape:collect="always"
       id="linearGradient3165">
      <stop
         style="stop-color:#ffffff;stop-opacity:1;"
         offset="0"
         id="stop3167" />
      <stop
         style="stop-color:#ffffff;stop-opacity:0;"
         offset="1"
         id="stop3169" />
    </linearGradient>
    <inkscape:perspective
       sodipodi:type="inkscape:persp3d"
       inkscape:vp_x="0 : 64 : 1"
       inkscape:vp_y="0 : 1000 : 0"
       inkscape:vp_z="128 : 64 : 1"
       inkscape:persp3d-origin="64 : 42.666667 : 1"
       id="perspective15" />
    <linearGradient
       id="linearGradient7101">
      <stop
         style="stop-color:#f8ead2;stop-opacity:1;"
         offset="0"
         id="stop7103" />
      <stop
         id="stop7171"
         offset="0.38691574"
         style="stop-color:#cfb07f;stop-opacity:1;" />
      <stop
         style="stop-color:#454545;stop-opacity:1;"
         offset="1"
         id="stop7105" />
    </linearGradient>
    <linearGradient
       inkscape:collect="always"
       xlink:href="#linearGradient7101"
       id="linearGradient3222"
       gradientUnits="userSpaceOnUse"
       gradientTransform="matrix(3.1646938,0,0,3.1763826,-30.175239,14.862959)"
       x1="31.857143"
       y1="-1.6005381"
       x2="31.857143"
       y2="47.410183" />
    <linearGradient
       inkscape:collect="always"
       xlink:href="#linearGradient3165"
       id="linearGradient3171"
       x1="75.15535"
       y1="-23.938225"
       x2="75.15535"
       y2="84.120644"
       gradientUnits="userSpaceOnUse" />
  </defs>
  <sodipodi:namedview
     id="base"
     pagecolor="#ffffff"
     bordercolor="#666666"
     borderopacity="1.0"
     inkscape:pageopacity="0.0"
     inkscape:pageshadow="2"
     inkscape:zoom="1.2374369"
     inkscape:cx="19.868269"
     inkscape:cy="-22.929344"
     inkscape:current-layer="layer1"
     showgrid="true"
     inkscape:grid-bbox="true"
     inkscape:document-units="px"
     inkscape:window-width="1600"
     inkscape:window-height="1136"
     inkscape:window-x="-5"
     inkscape:window-y="-3"
     inkscape:showpageshadow="false"
     showborder="true" />
  <metadata
     id="metadata2388">
    <rdf:RDF>
      <cc:Work
         rdf:about="">
        <dc:format>image/svg+xml</dc:format>
        <dc:type
           rdf:resource="http://purl.org/dc/dcmitype/StillImage" />
      </cc:Work>
    </rdf:RDF>
  </metadata>
  <g
     id="layer1"
     inkscape:label="Layer 1"
     inkscape:groupmode="layer"
     transform="translate(-6.65699,-8.0236645)">
    <text
       xml:space="preserve"
       style="font-size:16px;font-style:normal;font-variant:normal;font-weight:bold;font-stretch:normal;text-align:start;line-height:125%;writing-mode:lr-tb;text-anchor:start;fill:#000000;fill-opacity:1;stroke:none;stroke-width:1px;stroke-linecap:butt;stroke-linejoin:miter;stroke-opacity:1;font-family:Purisa;-inkscape-font-specification:Purisa Bold"
       x="6.2857141"
       y="9.7142859"
       id="text2404"
       sodipodi:linespacing="125%"
       transform="translate(-6.0587764,7.421875)"><tspan
         sodipodi:role="line"
         id="tspan2406"
         x="6.2857141"
         y="9.7142859" /></text>
    <path
       style="opacity:1;fill:url(#linearGradient3222);fill-opacity:1;fill-rule:evenodd;stroke:#886839;stroke-width:2;stroke-linecap:butt;stroke-linejoin:round;stroke-miterlimit:4;stroke-dasharray:none;stroke-opacity:1"
       d="M 61.16291,10.779038 L 61.16291,89.295249 L 79.261004,89.295249 L 79.261004,10.779038 L 61.16291,10.779038 z M 87.865011,17.925899 L 87.865011,39.962055 C 100.40239,46.302096 109.02892,59.268687 109.02892,74.306693 C 109.02891,95.558951 91.831046,112.82033 70.656989,112.82033 C 49.482937,112.82032 32.285081,95.558955 32.285081,74.306693 C 32.285081,59.616743 40.491706,46.852897 52.558895,40.359105 L 52.558895,18.223685 C 28.958485,25.875232 11.912361,48.073094 11.912361,74.306693 C 11.912361,106.86915 38.214355,133.26829 70.656989,133.26829 C 103.09963,133.26829 129.40163,106.86915 129.40162,74.306693 C 129.40162,47.74073 111.93026,25.298502 87.865011,17.925899 z"
       id="path2404" />
    <path
       style="opacity:1;fill:url(#linearGradient3171);fill-opacity:1;fill-rule:evenodd;stroke:none;stroke-width:2;stroke-linecap:butt;stroke-linejoin:round;stroke-miterlimit:4;stroke-dasharray:none;stroke-opacity:1"
       d="M 54.28125 1.71875 C 53.800278 1.8265569 53.461019 2.2571544 53.46875 2.75 L 53.46875 61.4375 C 60.189736 60.478793 66.935942 59.656092 73.625 58.9375 L 73.625 2.75 C 73.620181 2.1824646 73.161285 1.7235694 72.59375 1.71875 L 54.5 1.71875 C 54.427286 1.711061 54.353964 1.711061 54.28125 1.71875 z M 81 8.875 C 80.519028 8.9828069 80.179769 9.4134044 80.1875 9.90625 L 80.1875 31.9375 C 80.182396 32.33129 80.400136 32.694191 80.75 32.875 C 90.150572 37.628787 97.280667 46.212198 100.0625 56.59375 C 108.01057 56.031074 115.64199 55.597811 122.78125 55.28125 C 118.71064 33.206503 102.61753 15.366217 81.53125 8.90625 C 81.359873 8.8499415 81.176797 8.8391724 81 8.875 z M 45.84375 9.15625 C 45.762966 9.1611556 45.672795 9.1633735 45.59375 9.1875 C 21.57156 16.975794 4.21875 39.596872 4.21875 66.28125 C 4.21875 68.052898 4.3186954 69.798494 4.46875 71.53125 C 11.518655 69.482834 18.97569 67.684967 26.65625 66.09375 C 26.726454 51.870906 34.718969 39.5081 46.40625 33.21875 C 46.734078 33.034854 46.937179 32.688385 46.9375 32.3125 L 46.9375 10.1875 C 46.939149 9.8569255 46.796451 9.541109 46.53125 9.34375 C 46.332349 9.1957308 46.086101 9.1415333 45.84375 9.15625 z "
       id="path3160"
       transform="translate(6.65699,8.0236645)" />
  </g>
</svg>
