<?xml version="1.0" encoding="UTF-8" standalone="no"?>
<!-- Created with Inkscape (http://www.inkscape.org/) -->
<svg
   xmlns:dc="http://purl.org/dc/elements/1.1/"
   xmlns:cc="http://creativecommons.org/ns#"
   xmlns:rdf="http://www.w3.org/1999/02/22-rdf-syntax-ns#"
   xmlns:svg="http://www.w3.org/2000/svg"
   xmlns="http://www.w3.org/2000/svg"
   xmlns:xlink="http://www.w3.org/1999/xlink"
   xmlns:sodipodi="http://sodipodi.sourceforge.net/DTD/sodipodi-0.dtd"
   xmlns:inkscape="http://www.inkscape.org/namespaces/inkscape"
   width="128"
   height="128"
   id="svg2383"
   sodipodi:version="0.32"
   inkscape:version="0.46"
   sodipodi:docname="gnome-session-logout.svg"
   inkscape:output_extension="org.inkscape.output.svg.inkscape"
   version="1.0">
  <defs
     id="defs2385">
    <linearGradient
       inkscape:collect="always"
       id="linearGradient2399">
      <stop
         style="stop-color:#ffffff;stop-opacity:1;"
         offset="0"
         id="stop2401" />
      <stop
         style="stop-color:#ffffff;stop-opacity:0;"
         offset="1"
         id="stop2403" />
    </linearGradient>
    <inkscape:perspective
       sodipodi:type="inkscape:persp3d"
       inkscape:vp_x="0 : 64 : 1"
       inkscape:vp_y="0 : 1000 : 0"
       inkscape:vp_z="128 : 64 : 1"
       inkscape:persp3d-origin="64 : 42.666667 : 1"
       id="perspective15" />
    <linearGradient
       id="linearGradient7101">
      <stop
         style="stop-color:#f8ead2;stop-opacity:1;"
         offset="0"
         id="stop7103" />
      <stop
         id="stop7171"
         offset="0.40946281"
         style="stop-color:#cfb07f;stop-opacity:1;" />
      <stop
         style="stop-color:#454545;stop-opacity:1;"
         offset="1"
         id="stop7105" />
    </linearGradient>
    <linearGradient
       inkscape:collect="always"
       xlink:href="#linearGradient7101"
       id="linearGradient3222"
       gradientUnits="userSpaceOnUse"
       gradientTransform="matrix(0,-3.1646938,3.1763826,0,13.496286,172.85589)"
       x1="52.91264"
       y1="20.15546"
       x2="4.8628826"
       y2="20.15546" />
    <linearGradient
       inkscape:collect="always"
       xlink:href="#linearGradient2399"
       id="linearGradient2405"
       x1="70.285713"
       y1="-21.714689"
       x2="70.285713"
       y2="78.294319"
       gradientUnits="userSpaceOnUse" />
  </defs>
  <sodipodi:namedview
     id="base"
     pagecolor="#ffffff"
     bordercolor="#666666"
     borderopacity="1.0"
     inkscape:pageopacity="0.0"
     inkscape:pageshadow="2"
     inkscape:zoom="1.2374369"
     inkscape:cx="19.868269"
     inkscape:cy="-22.929344"
     inkscape:current-layer="layer1"
     showgrid="true"
     inkscape:grid-bbox="true"
     inkscape:document-units="px"
     inkscape:window-width="1600"
     inkscape:window-height="1136"
     inkscape:window-x="-5"
     inkscape:window-y="-3"
     inkscape:showpageshadow="false"
     showborder="true" />
  <metadata
     id="metadata2388">
    <rdf:RDF>
      <cc:Work
         rdf:about="">
        <dc:format>image/svg+xml</dc:format>
        <dc:type
           rdf:resource="http://purl.org/dc/dcmitype/StillImage" />
      </cc:Work>
    </rdf:RDF>
  </metadata>
  <g
     id="layer1"
     inkscape:label="Layer 1"
     inkscape:groupmode="layer"
     transform="translate(-6.65699,-8.0236645)">
    <text
       xml:space="preserve"
       style="font-size:16px;font-style:normal;font-variant:normal;font-weight:bold;font-stretch:normal;text-align:start;line-height:125%;writing-mode:lr-tb;text-anchor:start;fill:#000000;fill-opacity:1;stroke:none;stroke-width:1px;stroke-linecap:butt;stroke-linejoin:miter;stroke-opacity:1;font-family:Purisa;-inkscape-font-specification:Purisa Bold"
       x="6.2857141"
       y="9.7142859"
       id="text2404"
       sodipodi:linespacing="125%"
       transform="translate(-6.0587764,7.421875)"><tspan
         sodipodi:role="line"
         id="tspan2406"
         x="6.2857141"
         y="9.7142859" /></text>
    <path
       style="opacity:1;fill:url(#linearGradient3222);fill-opacity:1;fill-rule:evenodd;stroke:#886839;stroke-width:2;stroke-linecap:butt;stroke-linejoin:round;stroke-miterlimit:4;stroke-dasharray:none;stroke-opacity:1"
       d="M 67.092759,84.952264 L 67.092759,58.166858 L 9.4123645,72.419651 L 67.092759,84.952264 z M 16.559226,54.815644 L 38.595382,54.815644 C 44.935423,42.278265 57.902014,33.651735 72.94002,33.651735 C 94.192278,33.651745 111.45366,50.849609 111.45366,72.023666 C 111.45365,93.197718 94.192282,110.39557 72.94002,110.39557 C 58.25007,110.39557 45.486224,102.18895 38.992432,90.12176 L 16.857012,90.12176 C 24.508559,113.72217 46.706421,130.76829 72.94002,130.76829 C 105.50248,130.76829 131.90162,104.4663 131.90162,72.023666 C 131.90162,39.581025 105.50248,13.279025 72.94002,13.279035 C 46.374057,13.279035 23.931829,30.750395 16.559226,54.815644 z"
       id="path2404"
       sodipodi:nodetypes="ccccccsssccsssc" />
    <path
       style="opacity:1;fill:url(#linearGradient2405);fill-opacity:1;fill-rule:evenodd;stroke:none;stroke-width:2;stroke-linecap:butt;stroke-linejoin:round;stroke-miterlimit:4;stroke-dasharray:none;stroke-opacity:1"
       d="M 66.28125 4.21875 C 39.268545 4.21875 16.43929 21.981814 8.9375 46.46875 C 8.8329691 46.780143 8.8704115 47.139805 9.0625 47.40625 C 9.2545889 47.672695 9.5777831 47.81327 9.90625 47.8125 L 31.9375 47.8125 C 32.321406 47.810618 32.671694 47.593196 32.84375 47.25 C 39.016145 35.044141 51.632693 26.65625 66.28125 26.65625 C 85.204439 26.656261 100.85429 40.632272 103.40625 58.78125 C 111.77862 58.334791 119.38168 57.963551 125.9375 57.6875 C 122.76043 27.662638 97.247601 4.2187406 66.28125 4.21875 z M 60.40625 49.09375 C 60.332416 49.096211 60.259069 49.106687 60.1875 49.125 L 2.5 63.375 C 2.0237251 63.47661 1.6798917 63.919317 1.6875 64.40625 C 1.6951083 64.893184 2.0520331 65.288322 2.53125 65.375 L 9.65625 66.9375 C 25.653512 64.692938 43.722403 62.930303 61.46875 61.53125 L 61.46875 50.125 C 61.47227 49.844949 61.357226 49.570065 61.15625 49.375 C 60.955274 49.179933 60.686073 49.081874 60.40625 49.09375 z "
       transform="translate(6.65699,8.0236645)"
       id="path2394" />
  </g>
</svg>
